<svg width="88" height="34" viewBox="0 0 88 34" fill="none" xmlns="http://www.w3.org/2000/svg">
<g filter="url(#filter0_f_7_232)">
<path d="M83.2252 28.7951C83.2252 29.4606 67.7394 30 48.6368 30C29.5341 30 20.4782 29.4606 20.4782 28.7951C20.4782 28.1297 29.5341 27.5902 48.6368 27.5902C67.7394 27.5902 83.2252 28.1297 83.2252 28.7951Z" fill="#938F8F"/>
</g>
<path d="M59.9842 8.82776C61.0219 4.25119 65.5736 1.38284 70.1502 2.42053C74.7267 3.45826 77.5959 8.00907 76.5584 12.5856C75.5207 17.1622 70.969 20.0314 66.3924 18.9938C61.8157 17.956 58.9464 13.4044 59.9842 8.82776Z" fill="url(#paint0_linear_7_232)"/>
<rect x="70.7928" y="18.3207" width="4.64732" height="0.96186" transform="rotate(-36.6514 70.7928 18.3207)" fill="#FEB614"/>
<rect x="69.3749" y="15.2245" width="3.26542" height="4.29269" transform="rotate(-36.6514 69.3749 15.2245)" fill="#FFEB7B"/>
<rect width="6.10567" height="0.961861" rx="0.48093" transform="matrix(0.804214 -0.59434 0.594004 0.804462 71.0506 19.7441)" fill="#545C67"/>
<rect width="6.10567" height="0.961861" rx="0.48093" transform="matrix(0.804214 -0.59434 0.594004 0.804462 71.898 20.8878)" fill="#545C67"/>
<path d="M76.5411 19.2229C76.6419 19.8919 76.3802 20.5931 75.7988 21.024C75.2162 21.4556 74.4679 21.5009 73.8565 21.208L76.5411 19.2229Z" fill="#545C67"/>
<circle cx="68.4434" cy="10.707" r="5.32441" fill="#FFEB7B"/>
<path d="M74.3532 16.8652L73.8187 17.2617L71.7501 14.4729L71.7482 14.4744L71.3703 13.3714C71.1698 12.7868 70.5289 12.433 70.1624 12.7044L69.4425 13.2384C69.0763 13.5103 69.2286 14.2267 69.7298 14.5882L70.6757 15.2699L72.7447 18.0583L72.2097 18.4551L70.1412 15.6664L69.4573 15.1659C68.4644 14.4379 68.1677 13.0163 68.896 12.4758L69.5908 11.9605C70.3192 11.4202 71.5937 12.1167 72.0022 13.2783L72.2832 14.0776L72.2847 14.0765L74.3532 16.8652Z" fill="#FEB614"/>
<g filter="url(#filter1_f_7_232)">
<ellipse cx="70.3107" cy="7.22523" rx="3.27311" ry="1.67854" transform="rotate(28.3466 70.3107 7.22523)" fill="white"/>
</g>
<rect x="68.7798" y="12.8229" width="1.53015" height="0.243557" rx="0.121778" transform="rotate(-37.1736 68.7798 12.8229)" fill="white"/>
<circle cx="70.6783" cy="7.22521" r="0.532206" fill="white"/>
<circle cx="70.6783" cy="7.22521" r="0.532206" fill="white"/>
<path d="M57.3604 2.2079V19.0172H52.6872V12.2696H46.9887V19.0172H42.3155V2.2079H46.9887V8.52629H52.6872V2.2079H57.3604Z" fill="url(#paint1_linear_7_232)"/>
<path d="M30.2941 7.50106C30.6597 6.88115 31.1763 6.38839 31.8439 6.0228C32.5115 5.65721 33.2983 5.47441 34.2043 5.47441C35.2693 5.47441 36.231 5.75258 37.0893 6.30891C37.9636 6.86525 38.6471 7.66002 39.1398 8.69321C39.6485 9.72641 39.9028 10.9345 39.9028 12.3173C39.9028 13.7002 39.6485 14.9162 39.1398 15.9653C38.6471 16.9985 37.9636 17.7933 37.0893 18.3496C36.231 18.9059 35.2693 19.1841 34.2043 19.1841C33.2983 19.1841 32.5115 19.0013 31.8439 18.6357C31.1922 18.2701 30.6756 17.7774 30.2941 17.1575V25.4071H25.6209V5.64131H30.2941V7.50106ZM35.1581 12.3173C35.1581 11.4431 34.9196 10.7675 34.4428 10.2907C33.9818 9.79794 33.4096 9.55156 32.7261 9.55156C32.0426 9.55156 31.4624 9.79794 30.9855 10.2907C30.5246 10.7834 30.2941 11.459 30.2941 12.3173C30.2941 13.1916 30.5246 13.8751 30.9855 14.3678C31.4624 14.8606 32.0426 15.107 32.7261 15.107C33.4096 15.107 33.9818 14.8606 34.4428 14.3678C34.9196 13.8592 35.1581 13.1757 35.1581 12.3173Z" fill="#545C67"/>
<path d="M20.4902 4.81628C19.6636 4.81628 18.996 4.59374 18.4874 4.14868C17.9946 3.68771 17.7482 3.11548 17.7482 2.43198C17.7482 1.73259 17.9946 1.15241 18.4874 0.691447C18.996 0.230482 19.6636 0 20.4902 0C21.3008 0 21.9525 0.230482 22.4453 0.691447C22.9539 1.15241 23.2083 1.73259 23.2083 2.43198C23.2083 3.11548 22.9539 3.68771 22.4453 4.14868C21.9525 4.59374 21.3008 4.81628 20.4902 4.81628ZM22.9141 5.64131V19.0172H18.2409V5.64131H22.9141Z" fill="#545C67"/>
<path d="M15.3355 0.205093V19.0172H10.6623V0.205093H15.3355Z" fill="#545C67"/>
<path d="M8.24967 9.52769H6.15149V19.0172H1.45442V9.52769H0V5.64129H1.45442V5.52207C1.45442 3.80538 1.95512 2.49402 2.95653 1.58799C3.97383 0.666057 5.42825 0.205093 7.31979 0.205093C7.70128 0.205093 7.99534 0.213041 8.20198 0.228936V4.21071C8.07482 4.19482 7.89997 4.18687 7.67744 4.18687C7.16879 4.18687 6.79525 4.30608 6.55682 4.54451C6.31839 4.76705 6.18328 5.13264 6.15149 5.64129H8.24967V9.52769Z" fill="#545C67"/>
<g filter="url(#filter2_f_7_232)">
<ellipse cx="71.0508" cy="7.2513" rx="3.33274" ry="1.85527" transform="rotate(37.5197 71.0508 7.2513)" fill="white"/>
</g>
<defs>
<filter id="filter0_f_7_232" x="16.4782" y="23.5902" width="70.7469" height="10.4098" filterUnits="userSpaceOnUse" color-interpolation-filters="sRGB">
<feFlood flood-opacity="0" result="BackgroundImageFix"/>
<feBlend mode="normal" in="SourceGraphic" in2="BackgroundImageFix" result="shape"/>
<feGaussianBlur stdDeviation="2" result="effect1_foregroundBlur_7_232"/>
</filter>
<filter id="filter1_f_7_232" x="63.3211" y="1.08105" width="13.9792" height="12.2884" filterUnits="userSpaceOnUse" color-interpolation-filters="sRGB">
<feFlood flood-opacity="0" result="BackgroundImageFix"/>
<feBlend mode="normal" in="SourceGraphic" in2="BackgroundImageFix" result="shape"/>
<feGaussianBlur stdDeviation="2" result="effect1_foregroundBlur_7_232"/>
</filter>
<filter id="filter2_f_7_232" x="66.3754" y="2.94408" width="9.35092" height="8.61443" filterUnits="userSpaceOnUse" color-interpolation-filters="sRGB">
<feFlood flood-opacity="0" result="BackgroundImageFix"/>
<feBlend mode="normal" in="SourceGraphic" in2="BackgroundImageFix" result="shape"/>
<feGaussianBlur stdDeviation="0.9" result="effect1_foregroundBlur_7_232"/>
</filter>
<linearGradient id="paint0_linear_7_232" x1="68.2711" y1="2.20764" x2="68.2711" y2="19.2061" gradientUnits="userSpaceOnUse">
<stop offset="0.25" stop-color="#FEB614"/>
<stop offset="1" stop-color="#986D0C"/>
</linearGradient>
<linearGradient id="paint1_linear_7_232" x1="49.8379" y1="2.2079" x2="49.8379" y2="19.0172" gradientUnits="userSpaceOnUse">
<stop stop-color="#FAB313"/>
<stop offset="1" stop-color="#946A0B"/>
</linearGradient>
</defs>
</svg>
